<svg xmlns="http://www.w3.org/2000/svg" viewBox="0 0 512 512" style="height: 512px; width: 512px;"><g class="" transform="translate(1,2)" style=""><g><path d="M135.72 27.47L125.111 42.01C145.485 56.877 159.17 73.223 171.119 90.322L192.099 88.842C178.107 67.782 161.911 46.583 135.721 27.471Z" class="" fill="#d0021b" fill-opacity="1"></path><path d="M76.232 103.455L76.877 133.443L146.145 128.607L155.521 106.007L76.232 103.455Z" class="" fill="#d0021b" fill-opacity="1"></path><path d="M199.77 106.348L174.117 108.156L162.234 136.801C167.257 138.109 172.215 139.657 177.09 141.438C177.339 134.608 179.68 128.036 183.52 122.42C187.766 116.21 194.08 111.023 201.979 108.896L199.769 106.348Z" class="" fill="#f8e71c" fill-opacity="1"></path><path d="M210.094 125.846C209.144 125.828 208.253 125.927 207.402 126.098C204.001 126.78 200.745 129.118 198.379 132.578C196.013 136.038 194.821 140.444 195.111 143.891C195.394 147.247 196.487 149.565 199.656 151.563C201.37 152.488 203.056 153.445 204.723 154.426L215.943 127.379C213.74 126.306 211.82 125.879 210.093 125.846Z" class="" fill="#f8e71c" fill-opacity="1"></path><path d="M232.734 133.883L225.836 150.51L246.768 159.387C254.788 162.789 260.092 169.636 263.836 181.049C267.58 192.462 269.134 207.961 269.041 225.461C268.855 260.461 262.345 303.291 258.463 340.588C256.522 359.237 255.225 376.507 255.852 391.198C256.478 405.888 258.477 418.421 266.562 427.369C270.605 431.843 276.517 434.884 282.857 435.477C289.197 436.07 295.777 434.617 302.9 431.672C313.823 427.156 326.374 418.992 341.645 406.486L325.166 396.561C312.993 406.048 303.253 412.048 296.023 415.037C290.673 417.249 286.838 417.77 284.533 417.555C282.229 417.339 281.264 416.79 279.918 415.301C277.226 412.321 274.39 403.426 273.836 390.431C273.282 377.437 274.459 360.762 276.366 342.451C280.176 305.829 286.844 262.674 287.041 225.557C287.139 206.998 285.685 189.907 280.938 175.437C276.19 160.967 267.518 148.637 253.795 142.817L232.735 133.883Z" class="" fill="#c9c9c9" fill-opacity="1"></path><path d="M130.531 150.436C117.021 150.423 106.657 153.856 100.586 160.135L80.182 209.32L211.344 263.732L231.748 214.547C231.904 205.815 227.016 196.055 217.465 186.5C207.482 176.513 192.886 167.3 177.184 160.785C161.481 154.271 144.652 150.448 130.531 150.435Z" class="" fill="#d0021b" fill-opacity="1"></path><path d="M425.807 189.393L349.506 345.576L375.984 361.526L478.551 221.162L425.807 189.392Z" class="selected" fill="#c9c9c9" fill-opacity="1"></path><path d="M73.285 225.947L67.92 238.88L199.08 293.292L204.445 280.36L73.285 225.948Z" class="" fill="#ffffff" fill-opacity="1"></path><path d="M61.023 255.504L49.527 283.214L93.863 301.607L19.525 480.8L18 480.166L18 494L115.816 494L192.184 309.916L61.024 255.504Z" class="" fill="#d0021b" fill-opacity="1"></path><path d="M42.63 299.84L18 359.209L18 437.502L70.34 311.336L42.629 299.84Z" class="" fill="#ffffff" fill-opacity="1"></path><path d="M341.575 361.813L332.659 380.061L353.339 392.516L365.321 376.117L341.575 361.812Z" class="" fill="#c9c9c9" fill-opacity="1"></path></g></g></svg>