<svg xmlns="http://www.w3.org/2000/svg" viewBox="0 0 512 512" style="height: 512px; width: 512px;"><g class="" transform="translate(14,7)" style=""><g><path d="M256 25C277 25 290.936 35.482 309.63 45.867C327.347 55.71 349.62 64.151 381.03 57.737C395.936 72.637 411.08 87.54 427.23 97.633C440.446 105.893 455.297 110.813 470.11 108.488C465.86 141.928 445.554 174.638 424.326 191.76C368.346 173.208 312.226 163.928 256.106 163.928C199.934 163.928 143.763 173.225 87.732 191.811C66.482 174.703 46.142 141.961 41.889 108.489C56.699 110.815 71.553 105.893 84.769 97.634C100.919 87.541 116.061 72.639 130.969 57.739C162.376 64.152 184.652 55.711 202.369 45.869C221.065 35.48 235 25 256 25Z" class="" fill="#4a90e2" fill-opacity="1"></path><path d="M256.105 44.54C236.29 44.54 202.935 71.318 202.935 71.318C202.935 71.318 224.155 151.652 256.105 151.652C288.057 151.652 309.277 71.318 309.277 71.318C309.277 71.318 275.92 44.54 256.105 44.54Z" class="" fill="#f8e71c" fill-opacity="1"></path><path d="M256.105 181.86C308.895 181.86 361.689 190.49 414.609 207.594C416.789 221.064 413.099 231.074 405.161 240.33C396.301 250.663 381.429 259.433 363.801 266.04C328.541 279.258 282.818 283.936 256.104 283.936C229.391 283.936 183.67 279.258 148.411 266.041C130.781 259.434 115.911 250.664 107.051 240.331C99.111 231.074 95.419 221.066 97.601 207.595C150.521 190.49 203.314 181.86 256.104 181.86Z" class="" fill="#2c5a8a" fill-opacity="1"></path><path d="M429.332 239.006C439.152 241.388 456.264 246.781 459.338 256C467.74 281.197 442.418 319.795 423.268 344.15C428.544 322.146 431.388 298.74 431.388 274.47C431.388 262.412 430.682 250.57 429.332 239.006Z" class="selected" fill="#ffe0af" fill-opacity="1"></path><path d="M82.882 239.006C81.51 250.777 80.824 262.618 80.826 274.469C80.826 298.739 83.669 322.145 88.946 344.149C69.796 319.794 44.473 281.196 52.876 255.999C55.949 246.779 73.062 241.387 82.881 239.005Z" class="" fill="#ffe0af" fill-opacity="1"></path><path d="M412.912 258.178C413.217 263.555 413.387 268.984 413.387 274.468C413.387 333.842 395.257 387.426 366.484 425.773C337.712 464.12 298.781 487.086 256.104 487.086C213.43 487.086 174.498 464.12 145.727 425.773C116.955 387.426 98.827 333.843 98.827 274.469C98.827 268.983 98.997 263.554 99.301 258.177C107.501 265.833 117.517 272.045 128.536 277.207C124.266 295.407 128.802 318.045 140.634 329.872C162.408 351.637 211.239 351.637 233.014 329.872C239.758 323.129 242.651 312.385 242.269 301.604C247.203 301.82 251.869 301.934 256.106 301.934C260.344 301.934 265.011 301.82 269.946 301.604C269.563 312.384 272.456 323.129 279.202 329.872C300.977 351.637 349.806 351.637 371.58 329.872C383.412 318.045 387.948 295.41 383.678 277.21C394.698 272.048 404.716 265.834 412.914 258.178Z" class="" fill="#ffe0af" fill-opacity="1"></path><path d="M256.105 376.043C233.011 412.979 186.823 417.596 163.729 417.596C186.822 436.064 256.104 436.064 256.104 417.596C256.104 436.064 325.389 436.064 348.484 417.596C325.389 417.596 279.199 412.979 256.104 376.043Z" class="" fill="#8b572a" fill-opacity="1"></path></g></g></svg>