<svg xmlns="http://www.w3.org/2000/svg" viewBox="0 0 512 512" style="height: 512px; width: 512px;"><g class="" transform="translate(14,5)" style=""><g><path d="M174 20.85L148.7 74.7L91.7 27.96L118.6 94.2L57.7 71.84L103.9 121.2L39 149L135 159.1L135 103L220.6 103L236.2 20.85L188.1 75.05L174 20.85Z" class="" fill="#d0021b" fill-opacity="1"></path><path d="M275.8 20.89L291.4 103L377 103L377 159.1L473 149L408.1 121.2L454.2 71.88L393.4 94.24L420.3 28L363.3 74.74L338 20.89L323.9 75.09L275.8 20.89Z" class="" fill="#4a90e2" fill-opacity="1"></path><path d="M153 121L153 160C148.7 160.6 144.7 161.2 141.2 161.9C137.1 162.7 133.5 163.6 130.4 164.7C127.2 165.8 124.5 166.8 121.6 169.6L120.1 171.1L92.92 252.7C80.22 239.9 66.9 235.3 55.62 235.4C26.15 235.6 10.51 268.1 55.56 271.7C58.72 269.2 62.08 266.9 65.67 264.8C78.63 257.1 94.36 251.8 113.1 249.1L135.5 182.1C135.8 181.9 135.9 181.8 136.3 181.7C138.2 181 141.1 180.3 144.7 179.6C151.8 178.2 161.7 177 173.3 176C196.4 174 226.2 173 256 173C285.8 173 315.6 174 338.7 176C350.3 177 360.2 178.2 367.3 179.6C370.9 180.3 373.8 181 375.7 181.7C376.1 181.8 376.2 181.9 376.5 182.1L398.9 249.1C417.6 251.8 433.3 257.1 446.3 264.8C449.9 266.9 453.3 269.2 456.4 271.7C501.5 268.1 485.9 235.6 456.4 235.4C445.1 235.3 431.8 239.9 419.1 252.7L391.9 171.1L390.4 169.6C387.5 166.8 384.8 165.8 381.6 164.7C378.5 163.6 374.9 162.7 370.8 161.9C367.3 161.2 363.3 160.6 359 160L359 121L297 121L297 155.6C291.1 155.5 285.1 155.3 279 155.2L279 121L233 121L233 155.2C226.9 155.3 220.9 155.5 215 155.6L215 121L153 121Z" class="" fill="#ffffff" fill-opacity="1"></path><path d="M144 265C113.1 265 90.82 270.8 74.83 280.2C71.48 282.2 68.4 284.4 65.54 286.7L178.1 343L333.9 343L446.5 286.7C443.6 284.4 440.6 282.2 437.2 280.2C421.2 270.8 398.9 265 368 265L144 265Z" class="" fill="#c9c9c9" fill-opacity="1"></path><path d="M52.54 300.4C48.4 306.1 45.07 312.4 42.39 319.3C30.26 350.5 32.7 394.1 39.72 439L139.2 439L167 397.3L167 357.6L52.54 300.4Z" class="" fill="#ffffff" fill-opacity="1"></path><path d="M459.5 300.4L345 357.6L345 397.3L372.8 439L472.3 439C479.3 394.1 481.7 350.5 469.6 319.3C466.9 312.4 463.6 306.1 459.5 300.4Z" class="" fill="#ffffff" fill-opacity="1"></path><path d="M64 336L128 352L128 384L48.1 384L64 336Z" class="" fill="#f8e71c" fill-opacity="1"></path><path d="M448 336L464 384L384 384L384 352L448 336Z" class="" fill="#f8e71c" fill-opacity="1"></path><path d="M185 361L185 391L327 391L327 361L185 361Z" class="" fill="#000000" fill-opacity="1"></path><path d="M64.1 407L128 407L128 425L64.1 425L64.1 407Z" class="" fill="#f5a623" fill-opacity="1"></path><path d="M384 407L448 407L448 425L384 425L384 407Z" class="" fill="#f5a623" fill-opacity="1"></path><path d="M180.8 409L160.8 439L351.2 439L331.2 409L180.8 409Z" class="" fill="#c9c9c9" fill-opacity="1"></path><path d="M41 457L41 487L103 487L103 457L41 457Z" class="" fill="#000000" fill-opacity="1"></path><path d="M409 457L409 487L471 487L471 457L409 457Z" class="selected" fill="#000000" fill-opacity="1"></path></g></g></svg>